<svg xmlns="http://www.w3.org/2000/svg" width="161" height="50">
  <g fill="none" fill-rule="evenodd">
    <rect width="161" height="50" fill="#000014" rx="5"/>
    <path fill="#FFF" fill-rule="nonzero" d="M56.55 20.11c.487 0 .92-.07 1.3-.21.38-.14.7-.357.96-.65.26-.293.457-.667.59-1.12.133-.453.2-.997.2-1.63 0-.647-.063-1.198-.19-1.655-.127-.457-.318-.83-.575-1.12a2.243 2.243 0 00-.955-.635c-.38-.133-.823-.2-1.33-.2-.493 0-.928.07-1.305.21-.377.14-.695.357-.955.65-.26.293-.457.667-.59 1.12-.133.453-.2.997-.2 1.63 0 .633.067 1.177.2 1.63.133.453.33.827.59 1.12.26.293.578.51.955.65s.812.21 1.305.21zm0-.84c-.333 0-.63-.05-.89-.15-.26-.1-.478-.262-.655-.485a2.344 2.344 0 01-.405-.86c-.093-.35-.14-.775-.14-1.275 0-.507.047-.935.14-1.285.093-.35.228-.635.405-.855.177-.22.395-.38.655-.48.26-.1.557-.15.89-.15.34 0 .64.048.9.145.26.097.478.255.655.475.177.22.31.507.4.86.09.353.135.783.135 1.29s-.045.937-.135 1.29c-.09.353-.223.64-.4.86-.177.22-.395.378-.655.475-.26.097-.56.145-.9.145zm6.39.73v-4.46h1.66v-.8h-4.2v.8h1.66V20h.88zm3.65 0v-2.34h.63L69.03 20h1.06l-2.16-2.75 1.96-2.51h-1.03l-1.64 2.13h-.63v-2.13h-.88V20h.88zm5.55 1.8v-2.67c.06.127.133.25.22.37s.195.225.325.315.283.162.46.215c.177.053.382.08.615.08.34 0 .64-.05.9-.15.26-.1.478-.262.655-.485.177-.223.308-.512.395-.865.087-.353.13-.783.13-1.29 0-.493-.042-.91-.125-1.25-.083-.34-.207-.617-.37-.83a1.41 1.41 0 00-.615-.465 2.348 2.348 0 00-.86-.145c-.24 0-.452.025-.635.075-.183.05-.343.118-.48.205a1.574 1.574 0 00-.355.305c-.1.117-.187.242-.26.375l-.06-.85h-.82v7.06h.88zm1.41-2.5c-.433 0-.777-.137-1.03-.41-.253-.273-.38-.67-.38-1.19v-.66c0-.54.123-.942.37-1.205.247-.263.603-.395 1.07-.395.227 0 .425.032.595.095.17.063.312.168.425.315.113.147.198.34.255.58.057.24.085.537.085.89 0 .38-.028.697-.085.95a1.561 1.561 0 01-.26.61.947.947 0 01-.435.325 1.776 1.776 0 01-.61.095zm5.65.81c.753 0 1.332-.217 1.735-.65.403-.433.605-1.13.605-2.09 0-.98-.195-1.682-.585-2.105-.39-.423-.975-.635-1.755-.635-.733 0-1.307.223-1.72.67-.413.447-.62 1.137-.62 2.07 0 .96.198 1.657.595 2.09.397.433.978.65 1.745.65zm0-.81c-.24 0-.45-.033-.63-.1a1.02 1.02 0 01-.45-.325c-.12-.15-.21-.348-.27-.595-.06-.247-.09-.55-.09-.91 0-.707.125-1.205.375-1.495.25-.29.605-.435 1.065-.435.24 0 .45.033.63.1s.33.175.45.325c.12.15.21.348.27.595.06.247.09.55.09.91s-.03.663-.09.91-.15.445-.27.595c-.12.15-.27.258-.45.325s-.39.1-.63.1zm5.8-5.47c.467 0 .835-.103 1.105-.31.27-.207.422-.567.455-1.08h-.73c-.033.3-.117.512-.25.635s-.327.185-.58.185c-.253 0-.443-.062-.57-.185-.127-.123-.203-.335-.23-.635h-.76c.027.513.177.873.45 1.08.273.207.643.31 1.11.31zM83.73 20l2.08-3.26a8.522 8.522 0 00.46-.8h.02l-.02.25a2.92 2.92 0 00-.01.26V20h.88v-5.26h-.87L84.19 18a8.522 8.522 0 00-.46.8h-.02c0-.08.003-.163.01-.25a8.132 8.132 0 00.02-.54v-3.27h-.88V20h.87zm7.06 0v-4.46h1.66v-.8h-4.2v.8h1.66V20h.88zm4.93.11c.407 0 .748-.048 1.025-.145a2.89 2.89 0 00.665-.315v-.88c-.18.153-.413.285-.7.395-.287.11-.597.165-.93.165-.56 0-.97-.14-1.23-.42-.26-.28-.397-.717-.41-1.31h3.6v-.41c0-.893-.175-1.543-.525-1.95-.35-.407-.905-.61-1.665-.61-.713 0-1.273.22-1.68.66-.407.44-.61 1.123-.61 2.05 0 .96.198 1.662.595 2.105.397.443 1.018.665 1.865.665zm1.14-3.15h-2.72c.013-.56.138-.963.375-1.21s.582-.37 1.035-.37c.253 0 .463.035.63.105.167.07.3.173.4.31.1.137.172.303.215.5.043.197.065.418.065.665zm6.59 3.1c.407 0 .75-.035 1.03-.105.28-.07.505-.17.675-.3.17-.13.293-.292.37-.485a1.78 1.78 0 00.115-.66c0-.38-.092-.68-.275-.9-.183-.22-.465-.35-.845-.39.32-.093.553-.233.7-.42.147-.187.22-.42.22-.7 0-.227-.033-.428-.1-.605a.996.996 0 00-.335-.445 1.672 1.672 0 00-.63-.275 4.353 4.353 0 00-.995-.095c-.253 0-.488.003-.705.01-.217.007-.408.013-.575.02l-.54.02V20c.173.013.36.023.56.03.173.013.373.022.6.025.227.003.47.005.73.005zm.08-3.11h-1.1v-1.47c.073 0 .16-.003.26-.01.087-.007.188-.012.305-.015.117-.003.245-.005.385-.005.24 0 .435.015.585.045.15.03.27.077.36.14.09.063.152.142.185.235s.05.203.05.33c0 .24-.077.425-.23.555-.153.13-.42.195-.8.195zm-.06 2.33c-.28 0-.523-.003-.73-.01-.207-.007-.31-.013-.31-.02v-1.63h1.1c.467 0 .785.068.955.205.17.137.255.345.255.625 0 .153-.017.283-.05.39a.463.463 0 01-.195.255c-.097.063-.227.11-.39.14-.163.03-.375.045-.635.045zM55.272 36l.832-2.656h3.936L60.872 36H63l-3.728-11.2h-2.288L53.24 36h2.032zm4.24-4.368h-2.88l1.456-4.592 1.424 4.592zm6.784 7.248v-4.128c.085.181.195.36.328.536.133.176.299.33.496.464.197.133.43.243.696.328.267.085.576.128.928.128 1.11 0 1.939-.352 2.488-1.056.55-.704.824-1.872.824-3.504 0-.8-.064-1.477-.192-2.032-.128-.555-.32-1.005-.576-1.352a2.246 2.246 0 00-.968-.76c-.39-.16-.845-.24-1.368-.24-.363 0-.685.037-.968.112-.283.075-.53.179-.744.312a2.37 2.37 0 00-.552.472 3.14 3.14 0 00-.392.576l-.08-1.28h-1.872V38.88h1.952zm1.888-4.432c-.587 0-1.048-.184-1.384-.552-.336-.368-.504-.941-.504-1.72v-.896c0-.79.165-1.363.496-1.72.33-.357.8-.536 1.408-.536.31 0 .579.043.808.128.23.085.421.23.576.432.155.203.27.472.344.808.075.336.112.755.112 1.256 0 .544-.037.995-.112 1.352-.075.357-.19.645-.344.864-.155.219-.35.37-.584.456a2.383 2.383 0 01-.816.128zm7.552 4.432v-4.128c.085.181.195.36.328.536.133.176.299.33.496.464.197.133.43.243.696.328.267.085.576.128.928.128 1.11 0 1.939-.352 2.488-1.056.55-.704.824-1.872.824-3.504 0-.8-.064-1.477-.192-2.032-.128-.555-.32-1.005-.576-1.352a2.246 2.246 0 00-.968-.76c-.39-.16-.845-.24-1.368-.24-.363 0-.685.037-.968.112-.283.075-.53.179-.744.312a2.37 2.37 0 00-.552.472 3.14 3.14 0 00-.392.576l-.08-1.28h-1.872V38.88h1.952zm1.888-4.432c-.587 0-1.048-.184-1.384-.552-.336-.368-.504-.941-.504-1.72v-.896c0-.79.165-1.363.496-1.72.33-.357.8-.536 1.408-.536.31 0 .579.043.808.128.23.085.421.23.576.432.155.203.27.472.344.808.075.336.112.755.112 1.256 0 .544-.037.995-.112 1.352-.075.357-.19.645-.344.864-.155.219-.35.37-.584.456a2.383 2.383 0 01-.816.128zm10.464 1.76c.8 0 1.488-.09 2.064-.272.576-.181 1.019-.357 1.328-.528v-5.472h-3.712v1.712h1.792v2.448a8.696 8.696 0 01-.656.144 4.606 4.606 0 01-.816.064c-.533 0-.997-.067-1.392-.2a2.096 2.096 0 01-.976-.672c-.256-.315-.448-.725-.576-1.232-.128-.507-.192-1.133-.192-1.88 0-.693.064-1.283.192-1.768.128-.485.323-.88.584-1.184.261-.304.587-.525.976-.664.39-.139.85-.208 1.384-.208.576 0 1.101.07 1.576.208.475.139.867.293 1.176.464v-2.064a5.624 5.624 0 00-.752-.256 9.246 9.246 0 00-.872-.176 7.235 7.235 0 00-1.128-.08c-1.76 0-3.075.456-3.944 1.368-.87.912-1.304 2.37-1.304 4.376 0 1.056.104 1.955.312 2.696.208.741.528 1.35.96 1.824.432.475.976.819 1.632 1.032.656.213 1.437.32 2.344.32zm7.6 0c.693 0 1.248-.155 1.664-.464.416-.31.704-.677.864-1.104l.08 1.36h1.76v-5.632c0-.576-.059-1.061-.176-1.456a2.109 2.109 0 00-.568-.96c-.261-.245-.608-.421-1.04-.528-.432-.107-.957-.16-1.576-.16-.576 0-1.115.048-1.616.144-.501.096-.912.213-1.232.352v1.92c.277-.181.643-.336 1.096-.464.453-.128.93-.192 1.432-.192.661 0 1.115.104 1.36.312.245.208.368.563.368 1.064v.576h-1.6c-.619 0-1.141.056-1.568.168-.427.112-.773.277-1.04.496a1.84 1.84 0 00-.576.824c-.117.33-.176.72-.176 1.168 0 .843.216 1.483.648 1.92.432.437 1.064.656 1.896.656zm.704-1.664c-.437 0-.752-.09-.944-.272-.192-.181-.288-.453-.288-.816 0-.427.112-.739.336-.936.224-.197.635-.296 1.232-.296h1.376v.464c0 .608-.152 1.07-.456 1.384-.304.315-.723.472-1.256.472zm7.968 1.552a3.157 3.157 0 001.28-.24v-1.76c-.032.021-.13.061-.296.12a1.543 1.543 0 01-.52.088c-.277 0-.475-.064-.592-.192-.117-.128-.176-.373-.176-.736v-9.488h-1.952v9.872c0 .832.179 1.43.536 1.792.357.363.93.544 1.72.544zm5.04 0a3.157 3.157 0 001.28-.24v-1.76c-.032.021-.13.061-.296.12a1.543 1.543 0 01-.52.088c-.277 0-.475-.064-.592-.192-.117-.128-.176-.373-.176-.736v-9.488h-1.952v9.872c0 .832.179 1.43.536 1.792.357.363.93.544 1.72.544zm6.448.112c.736 0 1.339-.077 1.808-.232.47-.155.859-.333 1.168-.536v-1.808c-.277.256-.67.472-1.176.648a4.769 4.769 0 01-1.576.264c-.79 0-1.368-.181-1.736-.544-.368-.363-.568-.95-.6-1.76h5.6v-.928c0-1.323-.285-2.328-.856-3.016-.57-.688-1.517-1.032-2.84-1.032-1.216 0-2.163.357-2.84 1.072-.677.715-1.016 1.808-1.016 3.28 0 1.568.315 2.725.944 3.472.63.747 1.67 1.12 3.12 1.12zm1.536-5.216h-3.648c.043-.768.219-1.325.528-1.672.31-.347.768-.52 1.376-.52.672 0 1.13.187 1.376.56.245.373.368.917.368 1.632zM123.016 36v-4.736c0-.821.141-1.4.424-1.736.283-.336.685-.504 1.208-.504.277 0 .523.037.736.112.213.075.384.16.512.256V27.36a3.297 3.297 0 00-.832-.096c-.48 0-.904.123-1.272.368s-.653.64-.856 1.184l-.08-1.36h-1.792V36h1.952zm6.288 3.088c.299 0 .57-.037.816-.112.245-.075.472-.227.68-.456.208-.23.408-.552.6-.968.192-.416.395-.965.608-1.648l2.592-8.448h-2l-1.664 5.856-2.064-5.856h-2.112L130.04 36a4.52 4.52 0 01-.232.68 1.64 1.64 0 01-.248.408.631.631 0 01-.28.192 1.03 1.03 0 01-.312.048 1.344 1.344 0 01-.8-.24v1.792c.032.021.16.061.384.12s.475.088.752.088z"/>
    <path fill="#C8102E" fill-rule="nonzero" d="M19.735 8.178h14.712a9.467 9.467 0 019.467 9.466v14.712a9.467 9.467 0 01-9.467 9.467H19.735a9.467 9.467 0 01-9.467-9.467V17.644a9.467 9.467 0 019.467-9.467z"/>
    <path d="M16.93 25h.893v4.399h-.893v-1.788h-2.015v1.788h-.892V25h.892v1.771h2.015zM21.96 27.519c0 .708-.355 1.097-1 1.097-.644 0-1.005-.393-1.005-1.13v-2.479h-.893v2.515c0 1.236.687 1.944 1.884 1.944 1.198 0 1.906-.708 1.906-1.983v-2.479h-.893v2.515zM32.273 28.025L31.274 25h-.708l-.999 3.025L28.575 25h-.949l1.534 4.399h.74l.999-2.89.998 2.89h.748L34.175 25h-.928zM35.772 27.504h1.625v-.8h-1.625v-.9h2.359V25h-3.237v4.392h3.322v-.8h-2.444zM39.278 29.392h.882V25h-.882zM24.616 28.482l-.401.914h-.91L25.228 25h.787l1.93 4.396h-.935l-.365-.911z"/>
    <path fill="#FFF" fill-rule="nonzero" d="M27.091 19.401a5.603 5.603 0 01-5.6-5.6h.79a4.81 4.81 0 109.62 0h.79a5.603 5.603 0 01-5.6 5.6zm-10.16 5.6h.892v4.398h-.893v-1.788h-2.015v1.788h-.892V25h.892v1.771h2.015v-1.77zm5.028 2.518c0 .708-.354 1.097-.998 1.097-.645 0-1.006-.393-1.006-1.13v-2.479h-.893v2.515c0 1.236.687 1.944 1.884 1.944 1.198 0 1.906-.708 1.906-1.983v-2.479h-.893v2.515zm10.314.506L31.274 25h-.708l-1 3.025-.99-3.025h-.95l1.534 4.4h.74l.999-2.89.998 2.89h.748l1.53-4.4h-.928l-.974 3.025zm3.499-.52h1.626v-.801h-1.626v-.9h2.359V25h-3.237v4.392h3.322v-.8h-2.444v-1.088zm3.506 1.887h.882V25h-.882v4.392zm-14.662-.91l-.4.914h-.91L25.227 25h.787l1.93 4.396h-.935l-.365-.91-2.03-.004zm.333-.793h1.342l-.68-1.576-.662 1.576z"/>
  </g>
</svg>
