<svg xmlns="http://www.w3.org/2000/svg" width="161" height="50" viewBox="0 0 161 50">
  <g fill="none" fill-rule="evenodd">
    <rect width="161" height="50" fill="#000014" rx="5"/>
    <path fill="#FFF" fill-rule="nonzero" d="M78.392,27.264 C78.9146667,27.264 79.3706667,27.344 79.76,27.504 C80.1493333,27.664 80.472,27.9173333 80.728,28.264 C80.984,28.6106667 81.176,29.0613333 81.304,29.616 C81.432,30.1706667 81.496,30.848 81.496,31.648 C81.496,33.28 81.2213333,34.448 80.672,35.152 C80.1226667,35.856 79.2933333,36.208 78.184,36.208 C77.832,36.208 77.5226667,36.1653333 77.256,36.08 C76.9893333,35.9946667 76.7573333,35.8853333 76.56,35.752 C76.3626667,35.6186667 76.1973333,35.464 76.064,35.288 C75.9306667,35.112 75.8213333,34.9333333 75.736,34.752 L75.736,34.752 L75.736,38.88 L73.784,38.88 L73.784,27.456 L75.656,27.456 L75.736,28.736 L75.8506667,28.5368889 C75.9324444,28.4065185 76.0248889,28.2808889 76.128,28.16 C76.2826667,27.9786667 76.4666667,27.8213333 76.68,27.688 C76.8933333,27.5546667 77.1413333,27.4506667 77.424,27.376 C77.7066667,27.3013333 78.0293333,27.264 78.392,27.264 Z M68.952,27.264 C69.4746667,27.264 69.9306667,27.344 70.32,27.504 C70.7093333,27.664 71.032,27.9173333 71.288,28.264 C71.544,28.6106667 71.736,29.0613333 71.864,29.616 C71.992,30.1706667 72.056,30.848 72.056,31.648 C72.056,33.28 71.7813333,34.448 71.232,35.152 C70.6826667,35.856 69.8533333,36.208 68.744,36.208 C68.392,36.208 68.0826667,36.1653333 67.816,36.08 C67.5493333,35.9946667 67.3173333,35.8853333 67.12,35.752 C66.9226667,35.6186667 66.7573333,35.464 66.624,35.288 C66.4906667,35.112 66.3813333,34.9333333 66.296,34.752 L66.296,34.752 L66.296,38.88 L64.344,38.88 L64.344,27.456 L66.216,27.456 L66.296,28.736 L66.4106667,28.5368889 C66.4924444,28.4065185 66.5848889,28.2808889 66.688,28.16 C66.8426667,27.9786667 67.0266667,27.8213333 67.24,27.688 C67.4533333,27.5546667 67.7013333,27.4506667 67.984,27.376 C68.2666667,27.3013333 68.5893333,27.264 68.952,27.264 Z M122.52,27.264 C123.842667,27.264 124.789333,27.608 125.36,28.296 C125.930667,28.984 126.216,29.9893333 126.216,31.312 L126.216,31.312 L126.216,32.24 L120.616,32.24 L120.63064,32.47648 C120.68968,33.16576 120.8848,33.6736 121.216,34 C121.584,34.3626667 122.162667,34.544 122.952,34.544 C123.496,34.544 124.021333,34.456 124.528,34.28 C125.034667,34.104 125.426667,33.888 125.704,33.632 L125.704,33.632 L125.704,35.44 L125.5088,35.55872 C125.235733,35.7131733 124.911467,35.8522667 124.536,35.976 C124.066667,36.1306667 123.464,36.208 122.728,36.208 C121.277333,36.208 120.237333,35.8346667 119.608,35.088 C118.978667,34.3413333 118.664,33.184 118.664,31.616 C118.664,30.144 119.002667,29.0506667 119.68,28.336 C120.357333,27.6213333 121.304,27.264 122.52,27.264 Z M106.92,27.264 C108.253333,27.264 109.242667,27.608 109.888,28.296 C110.533333,28.984 110.856,30.128 110.856,31.728 C110.856,33.296 110.522667,34.4346667 109.856,35.144 C109.189333,35.8533333 108.210667,36.208 106.92,36.208 C105.618667,36.208 104.637333,35.8533333 103.976,35.144 C103.314667,34.4346667 102.984,33.296 102.984,31.728 C102.984,30.2026667 103.325333,29.0773333 104.008,28.352 C104.690667,27.6266667 105.661333,27.264 106.92,27.264 Z M91.032,24.592 C91.6506667,24.592 92.224,24.6453333 92.752,24.752 C93.28,24.8586667 93.7146667,24.992 94.056,25.152 L94.056,25.152 L94.056,27.376 L93.8726667,27.2424444 C93.5548889,27.0283704 93.176,26.8568889 92.736,26.728 C92.208,26.5733333 91.672,26.496 91.128,26.496 C90.7653333,26.496 90.4666667,26.5226667 90.232,26.576 C89.9973333,26.6293333 89.8106667,26.704 89.672,26.8 C89.5333333,26.896 89.4346667,27.0186667 89.376,27.168 C89.3173333,27.3173333 89.288,27.488 89.288,27.68 C89.288,28.064 89.4186667,28.3626667 89.68,28.576 C89.9413333,28.7893333 90.264,28.9733333 90.648,29.128 C91.032,29.2826667 91.4533333,29.4346667 91.912,29.584 C92.3706667,29.7333333 92.792,29.9333333 93.176,30.184 C93.56,30.4346667 93.8826667,30.7706667 94.144,31.192 C94.4053333,31.6133333 94.536,32.1653333 94.536,32.848 C94.536,33.9253333 94.224,34.7546667 93.6,35.336 C92.976,35.9173333 91.992,36.208 90.648,36.208 C89.9333333,36.208 89.28,36.128 88.688,35.968 C88.096,35.808 87.6186667,35.616 87.256,35.392 L87.256,35.392 L87.256,33.168 L87.3675,33.2645 C87.4865,33.3615 87.628,33.46 87.792,33.56 C88.0106667,33.6933333 88.2586667,33.816 88.536,33.928 C88.8133333,34.04 89.1226667,34.1306667 89.464,34.2 C89.8053333,34.2693333 90.168,34.304 90.552,34.304 C91.2346667,34.304 91.7173333,34.184 92,33.944 C92.2826667,33.704 92.424,33.376 92.424,32.96 C92.424,32.5546667 92.2933333,32.2373333 92.032,32.008 C91.7706667,31.7786667 91.448,31.5813333 91.064,31.416 C90.68,31.2506667 90.2586667,31.0933333 89.8,30.944 C89.3413333,30.7946667 88.92,30.5973333 88.536,30.352 C88.152,30.1066667 87.8293333,29.784 87.568,29.384 C87.3066667,28.984 87.176,28.4533333 87.176,27.792 C87.176,26.768 87.48,25.9786667 88.088,25.424 C88.696,24.8693333 89.6773333,24.592 91.032,24.592 Z M99.208,25.216 L99.208,27.456 L101.64,27.456 L101.64,29.168 L99.208,29.168 L99.208,33.056 L99.2125714,33.2445714 C99.2308571,33.6057143 99.304,33.8708571 99.432,34.04 C99.5813333,34.2373333 99.8426667,34.336 100.216,34.336 C100.504,34.336 100.768,34.2933333 101.008,34.208 C101.248,34.1226667 101.458667,34.0106667 101.64,33.872 L101.64,33.872 L101.64,35.696 L101.557778,35.7435556 C101.408148,35.8220741 101.195556,35.8968889 100.92,35.968 C100.589333,36.0533333 100.205333,36.096 99.768,36.096 C98.8613333,36.096 98.216,35.88 97.832,35.448 C97.448,35.016 97.256,34.2933333 97.256,33.28 L97.256,33.28 L97.256,29.168 L95.88,29.168 L95.88,27.456 L97.256,27.456 L97.256,25.888 L99.208,25.216 Z M59.272,24.8 L63,36 L60.872,36 L60.04,33.344 L56.104,33.344 L55.272,36 L53.24,36 L56.984,24.8 L59.272,24.8 Z M116.584,27.264 C116.797333,27.264 116.981333,27.2773333 117.136,27.304 C117.290667,27.3306667 117.384,27.3493333 117.416,27.36 L117.416,27.36 L117.416,29.392 L117.312,29.322 C117.2,29.254 117.064,29.192 116.904,29.136 C116.690667,29.0613333 116.445333,29.024 116.168,29.024 C115.645333,29.024 115.242667,29.192 114.96,29.528 C114.677333,29.864 114.536,30.4426667 114.536,31.264 L114.536,31.264 L114.536,36 L112.584,36 L112.584,27.456 L114.376,27.456 L114.456,28.816 L114.535875,28.619 C114.731292,28.1756667 114.99,27.8466667 115.312,27.632 C115.68,27.3866667 116.104,27.264 116.584,27.264 Z M36.3510581,15.5312973 C37.231705,15.5676234 39.7033205,15.8856352 41.2906276,18.2049159 C41.165189,18.2872469 38.3404468,19.9282517 38.3748916,23.3470341 C38.409472,27.4309173 41.9587748,28.788387 42,28.8068807 C41.9678606,28.9028594 41.4326106,30.7448118 40.1288626,32.6479151 C39.0016779,34.2938606 37.8357089,35.9296817 35.9948124,35.9639694 C35.2488016,35.9780879 34.7114944,35.7988964 34.1931711,35.5831976 L33.749118,35.3930296 C33.1514462,35.137304 32.5077702,34.8924107 31.534893,34.8924107 C29.4653591,34.8924107 28.8179602,35.9296817 27.1073707,35.9982571 C25.3301698,36.0646727 23.9788094,34.2205604 22.8423354,32.5820395 C20.5205547,29.2318325 18.7484799,23.109315 21.1317323,18.9774829 C22.3119131,16.925525 24.4266592,15.6272354 26.7183075,15.5929612 C28.4636131,15.5608873 30.1123512,16.7679095 31.1783761,16.7679095 C32.2460283,16.7679095 34.247215,15.3187405 36.3510581,15.5312973 Z M106.92,29.024 C106.290667,29.024 105.813333,29.224 105.488,29.624 C105.162667,30.024 105,30.7253333 105,31.728 C105,32.24 105.04,32.672 105.12,33.024 C105.2,33.376 105.32,33.656 105.48,33.864 C105.64,34.072 105.84,34.2213333 106.08,34.312 C106.32,34.4026667 106.6,34.448 106.92,34.448 C107.24,34.448 107.52,34.4026667 107.76,34.312 C108,34.2213333 108.2,34.072 108.36,33.864 C108.52,33.656 108.64,33.376 108.72,33.024 C108.8,32.672 108.84,32.24 108.84,31.728 C108.84,31.216 108.8,30.7866667 108.72,30.44 C108.64,30.0933333 108.52,29.816 108.36,29.608 C108.2,29.4 108,29.2506667 107.76,29.16 C107.52,29.0693333 107.24,29.024 106.92,29.024 Z M77.64,29.024 C77.032,29.024 76.5626667,29.2026667 76.232,29.56 C75.9013333,29.9173333 75.736,30.4906667 75.736,31.28 L75.736,31.28 L75.736,32.176 L75.74104,32.40344 C75.77128,33.06728 75.9376,33.5648 76.24,33.896 C76.576,34.264 77.0373333,34.448 77.624,34.448 C77.9333333,34.448 78.2053333,34.4053333 78.44,34.32 C78.6746667,34.2346667 78.8693333,34.0826667 79.024,33.864 C79.1786667,33.6453333 79.2933333,33.3573333 79.368,33 C79.4426667,32.6426667 79.48,32.192 79.48,31.648 C79.48,31.1466667 79.4426667,30.728 79.368,30.392 C79.2933333,30.056 79.1786667,29.7866667 79.024,29.584 C78.8693333,29.3813333 78.6773333,29.2373333 78.448,29.152 C78.2186667,29.0666667 77.9493333,29.024 77.64,29.024 Z M68.2,29.024 C67.592,29.024 67.1226667,29.2026667 66.792,29.56 C66.4613333,29.9173333 66.296,30.4906667 66.296,31.28 L66.296,31.28 L66.296,32.176 L66.30104,32.40344 C66.33128,33.06728 66.4976,33.5648 66.8,33.896 C67.136,34.264 67.5973333,34.448 68.184,34.448 C68.4933333,34.448 68.7653333,34.4053333 69,34.32 C69.2346667,34.2346667 69.4293333,34.0826667 69.584,33.864 C69.7386667,33.6453333 69.8533333,33.3573333 69.928,33 C70.0026667,32.6426667 70.04,32.192 70.04,31.648 C70.04,31.1466667 70.0026667,30.728 69.928,30.392 C69.8533333,30.056 69.7386667,29.7866667 69.584,29.584 C69.4293333,29.3813333 69.2373333,29.2373333 69.008,29.152 C68.7786667,29.0666667 68.5093333,29.024 68.2,29.024 Z M58.088,27.04 L56.632,31.632 L59.512,31.632 L58.088,27.04 Z M122.52,28.8 C121.912,28.8 121.453333,28.9733333 121.144,29.32 C120.834667,29.6666667 120.658667,30.224 120.616,30.992 L120.616,30.992 L124.264,30.992 C124.264,30.2773333 124.141333,29.7333333 123.896,29.36 C123.650667,28.9866667 123.192,28.8 122.52,28.8 Z M75.21,14.74 L76.8,18.83 L78.13,14.74 L79.05,14.74 L77.25,20.03 L77.1672,20.268 C77.0584,20.572 76.956,20.8226667 76.86,21.02 C76.74,21.2666667 76.6183333,21.455 76.495,21.585 C76.3716667,21.715 76.2433333,21.8016667 76.11,21.845 C75.9766667,21.8883333 75.8266667,21.91 75.66,21.91 C75.5266667,21.91 75.4033333,21.8966667 75.29,21.87 C75.1766667,21.8433333 75.1033333,21.82 75.07,21.8 L75.07,21.8 L75.07,20.94 L75.1333333,20.9838889 C75.1777778,21.0112963 75.2266667,21.035 75.28,21.055 C75.36,21.085 75.4566667,21.1 75.57,21.1 C75.65,21.1 75.7233333,21.0883333 75.79,21.065 C75.8566667,21.0416667 75.9216667,20.99 75.985,20.91 C76.0483333,20.83 76.1116667,20.7183333 76.175,20.575 C76.2383333,20.4316667 76.3066667,20.24 76.38,20 L76.38,20 L74.25,14.74 L75.21,14.74 Z M71.57,14.63 C71.8966667,14.63 72.1833333,14.6783333 72.43,14.775 C72.6766667,14.8716667 72.8816667,15.0266667 73.045,15.24 C73.2083333,15.4533333 73.3316667,15.73 73.415,16.07 C73.4983333,16.41 73.54,16.8266667 73.54,17.32 C73.54,17.8266667 73.4966667,18.2566667 73.41,18.61 C73.3233333,18.9633333 73.1916667,19.2516667 73.015,19.475 C72.8383333,19.6983333 72.62,19.86 72.36,19.96 C72.1,20.06 71.8,20.11 71.46,20.11 C71.2266667,20.11 71.0216667,20.0833333 70.845,20.03 C70.6683333,19.9766667 70.515,19.905 70.385,19.815 C70.255,19.725 70.1466667,19.62 70.06,19.5 C69.9733333,19.38 69.9,19.2566667 69.84,19.13 L69.84,19.13 L69.84,21.8 L68.96,21.8 L68.96,14.74 L69.78,14.74 L69.84,15.59 L69.9177778,15.4594444 C69.9725926,15.3742593 70.0333333,15.2927778 70.1,15.215 C70.2,15.0983333 70.3183333,14.9966667 70.455,14.91 C70.5916667,14.8233333 70.7516667,14.755 70.935,14.705 C71.1183333,14.655 71.33,14.63 71.57,14.63 Z M97.5,14.63 C98.26,14.63 98.815,14.8333333 99.165,15.24 C99.515,15.6466667 99.69,16.2966667 99.69,17.19 L99.69,17.19 L99.69,17.6 L96.09,17.6 L96.0990123,17.7919753 C96.1352263,18.2884362 96.2688889,18.6611111 96.5,18.91 C96.76,19.19 97.17,19.33 97.73,19.33 C98.0633333,19.33 98.3733333,19.275 98.66,19.165 C98.9466667,19.055 99.18,18.9233333 99.36,18.77 L99.36,18.77 L99.36,19.65 L99.2534,19.717 C99.1024667,19.805 98.9163333,19.8876667 98.695,19.965 C98.4183333,20.0616667 98.0766667,20.11 97.67,20.11 C96.8233333,20.11 96.2016667,19.8883333 95.805,19.445 C95.4083333,19.0016667 95.21,18.3 95.21,17.34 C95.21,16.4133333 95.4133333,15.73 95.82,15.29 C96.2266667,14.85 96.7866667,14.63 97.5,14.63 Z M81.43,14.63 C81.7766667,14.63 82.07,14.66 82.31,14.72 C82.55,14.78 82.7416667,14.87 82.885,14.99 C83.0283333,15.11 83.1316667,15.2616667 83.195,15.445 C83.2583333,15.6283333 83.29,15.8466667 83.29,16.1 C83.29,16.3733333 83.2133333,16.6166667 83.06,16.83 C82.9066667,17.0433333 82.6766667,17.1866667 82.37,17.26 C83.1166667,17.3466667 83.49,17.7733333 83.49,18.54 C83.49,19.02 83.3266667,19.4016667 83,19.685 C82.6733333,19.9683333 82.14,20.11 81.4,20.11 C81.2533333,20.11 81.1,20.1016667 80.94,20.085 C80.78,20.0683333 80.6216667,20.045 80.465,20.015 C80.3083333,19.985 80.16,19.9483333 80.02,19.905 C79.88,19.8616667 79.7566667,19.8133333 79.65,19.76 L79.65,19.76 L79.65,18.77 L79.7644,18.856 C79.9254667,18.968 80.1206667,19.0693333 80.35,19.16 C80.6366667,19.2733333 80.97,19.33 81.35,19.33 C81.8166667,19.33 82.1416667,19.255 82.325,19.105 C82.5083333,18.955 82.6,18.74 82.6,18.46 C82.6,18.3266667 82.5816667,18.21 82.545,18.11 C82.5083333,18.01 82.4416667,17.9283333 82.345,17.865 C82.2483333,17.8016667 82.12,17.7533333 81.96,17.72 C81.8,17.6866667 81.5966667,17.67 81.35,17.67 L81.35,17.67 L80.62,17.67 L80.62,16.97 L81.35,16.97 L81.5061224,16.9657143 C81.804898,16.9485714 82.0228571,16.88 82.16,16.76 C82.32,16.62 82.4,16.43 82.4,16.19 C82.4,15.9233333 82.325,15.7266667 82.175,15.6 C82.025,15.4733333 81.74,15.41 81.32,15.41 C81.02,15.41 80.7366667,15.4566667 80.47,15.55 C80.2033333,15.6433333 79.9633333,15.77 79.75,15.93 L79.75,15.93 L79.75,14.95 L79.9777778,14.8622222 C80.1348148,14.8074074 80.3022222,14.76 80.48,14.72 C80.7466667,14.66 81.0633333,14.63 81.43,14.63 Z M61.06,14.63 C61.42,14.63 61.7266667,14.665 61.98,14.735 C62.2333333,14.805 62.4383333,14.915 62.595,15.065 C62.7516667,15.215 62.865,15.4066667 62.935,15.64 C63.005,15.8733333 63.04,16.1566667 63.04,16.49 L63.04,16.49 L63.04,20 L62.25,20 L62.2,19.1 L62.1196,19.263 C62.0012,19.4736667 61.838,19.6576667 61.63,19.815 C61.37,20.0116667 61.0266667,20.11 60.6,20.11 C60.06,20.11 59.6516667,19.9733333 59.375,19.7 C59.0983333,19.4266667 58.96,19.0366667 58.96,18.53 C58.96,18.2633333 58.995,18.0316667 59.065,17.835 C59.135,17.6383333 59.2533333,17.4733333 59.42,17.34 C59.5866667,17.2066667 59.8033333,17.1066667 60.07,17.04 C60.3366667,16.9733333 60.6666667,16.94 61.06,16.94 L61.06,16.94 L62.16,16.94 L62.16,16.47 L62.1546939,16.3166327 C62.1334694,16.0231633 62.0485714,15.8092857 61.9,15.675 C61.7266667,15.5183333 61.4066667,15.44 60.94,15.44 C60.6266667,15.44 60.3333333,15.4833333 60.06,15.57 C59.7866667,15.6566667 59.5566667,15.7633333 59.37,15.89 L59.37,15.89 L59.37,14.97 L59.4924,14.9156 C59.6641333,14.8452 59.87,14.7833333 60.11,14.73 C60.41,14.6633333 60.7266667,14.63 61.06,14.63 Z M55.46,12.89 C56.2533333,12.89 56.8166667,13.0466667 57.15,13.36 C57.4833333,13.6733333 57.65,14.12 57.65,14.7 C57.65,15.1333333 57.5466667,15.49 57.34,15.77 C57.1333333,16.05 56.8333333,16.2466667 56.44,16.36 C56.92,16.4066667 57.2816667,16.5783333 57.525,16.875 C57.7683333,17.1716667 57.89,17.57 57.89,18.07 C57.89,18.7166667 57.7,19.2183333 57.32,19.575 C56.94,19.9316667 56.3133333,20.11 55.44,20.11 C55.02,20.11 54.65,20.0716667 54.33,19.995 C54.01,19.9183333 53.7333333,19.8266667 53.5,19.72 L53.5,19.72 L53.5,18.65 L53.6278,18.7542 C53.8086,18.8880667 54.031,19.0016667 54.295,19.095 C54.625,19.2116667 54.9933333,19.27 55.4,19.27 C55.9533333,19.27 56.345,19.165 56.575,18.955 C56.805,18.745 56.92,18.42 56.92,17.98 C56.92,17.5933333 56.8066667,17.3 56.58,17.1 C56.3533333,16.9 55.96,16.8 55.4,16.8 L55.4,16.8 L54.48,16.8 L54.48,16.03 L55.37,16.03 L55.5365625,16.0253906 C55.9113542,16.0038802 56.1891667,15.9070833 56.37,15.735 C56.5766667,15.5383333 56.68,15.2433333 56.68,14.85 C56.68,14.47 56.5816667,14.1883333 56.385,14.005 C56.1883333,13.8216667 55.8533333,13.73 55.38,13.73 C55.06,13.73 54.7533333,13.7783333 54.46,13.875 C54.1666667,13.9716667 53.8933333,14.1066667 53.64,14.28 L53.64,14.28 L53.64,13.24 L53.82125,13.168125 C54.00875,13.099375 54.215,13.04 54.44,12.99 C54.74,12.9233333 55.08,12.89 55.46,12.89 Z M105.33,14.68 C105.73,14.68 106.061667,14.7116667 106.325,14.775 C106.588333,14.8383333 106.798333,14.93 106.955,15.05 C107.111667,15.17 107.223333,15.3183333 107.29,15.495 C107.356667,15.6716667 107.39,15.8733333 107.39,16.1 C107.39,16.38 107.316667,16.6133333 107.17,16.8 C107.023333,16.9866667 106.79,17.1266667 106.47,17.22 C106.85,17.26 107.131667,17.39 107.315,17.61 C107.498333,17.83 107.59,18.13 107.59,18.51 C107.59,18.7566667 107.551667,18.9766667 107.475,19.17 C107.398333,19.3633333 107.275,19.525 107.105,19.655 C106.935,19.785 106.71,19.885 106.43,19.955 C106.15,20.025 105.806667,20.06 105.4,20.06 C105.14,20.06 104.896667,20.0583333 104.67,20.055 C104.443333,20.0516667 104.243333,20.0433333 104.07,20.03 C103.87,20.0233333 103.683333,20.0133333 103.51,20 L103.51,20 L103.51,14.73 L103.681111,14.7233333 C103.798148,14.7188889 103.921111,14.7144444 104.05,14.71 C104.216667,14.7033333 104.408333,14.6966667 104.625,14.69 C104.841667,14.6833333 105.076667,14.68 105.33,14.68 Z M85.69,14.74 L85.69,18.01 L85.68875,18.1575 L85.68875,18.1575 L85.685,18.3 C85.6816667,18.3933333 85.6766667,18.4766667 85.67,18.55 C85.6633333,18.6366667 85.66,18.72 85.66,18.8 L85.66,18.8 L85.68,18.8 L85.7425,18.6775 L85.7425,18.6775 L85.81,18.55 C85.8966667,18.39 86.0066667,18.2066667 86.14,18 L86.14,18 L88.22,14.74 L89.09,14.74 L89.09,20 L88.21,20 L88.21,16.45 L88.2111111,16.3544444 C88.2125926,16.2937037 88.2155556,16.2388889 88.22,16.19 C88.2266667,16.1033333 88.2333333,16.02 88.24,15.94 L88.24,15.94 L88.22,15.94 L88.1575,16.0625 L88.1575,16.0625 L88.09,16.19 C88.0033333,16.35 87.8933333,16.5333333 87.76,16.74 L87.76,16.74 L85.68,20 L84.81,20 L84.81,14.74 L85.69,14.74 Z M67.85,14.74 L67.85,15.54 L65.49,15.54 L65.49,20 L64.61,20 L64.61,14.74 L67.85,14.74 Z M94.4,14.74 L94.4,15.54 L92.74,15.54 L92.74,20 L91.86,20 L91.86,15.54 L90.2,15.54 L90.2,14.74 L94.4,14.74 Z M62.16,17.56 L61.12,17.56 L60.9470312,17.5635156 C60.5598437,17.5799219 60.2875,17.65375 60.13,17.785 C59.95,17.935 59.86,18.17 59.86,18.49 C59.86,18.77 59.9366667,18.98 60.09,19.12 C60.2433333,19.26 60.49,19.33 60.83,19.33 C61.2433333,19.33 61.5683333,19.2083333 61.805,18.965 C62.0416667,18.7216667 62.16,18.3733333 62.16,17.92 L62.16,17.92 L62.16,17.56 Z M71.28,15.44 C70.8133333,15.44 70.4566667,15.5716667 70.21,15.835 C69.9633333,16.0983333 69.84,16.5 69.84,17.04 L69.84,17.04 L69.84,17.7 L69.8459375,17.8892187 C69.8736458,18.3172396 69.9983333,18.6508333 70.22,18.89 C70.4733333,19.1633333 70.8166667,19.3 71.25,19.3 C71.4833333,19.3 71.6866667,19.2683333 71.86,19.205 C72.0333333,19.1416667 72.1783333,19.0333333 72.295,18.88 C72.4116667,18.7266667 72.4983333,18.5233333 72.555,18.27 C72.6116667,18.0166667 72.64,17.7 72.64,17.32 C72.64,16.9666667 72.6116667,16.67 72.555,16.43 C72.4983333,16.19 72.4133333,15.9966667 72.3,15.85 C72.1866667,15.7033333 72.045,15.5983333 71.875,15.535 C71.705,15.4716667 71.5066667,15.44 71.28,15.44 Z M105.48,17.62 L104.38,17.62 L104.38,19.25 C104.417315,19.2588889 104.517778,19.2644444 104.69,19.27 C104.896667,19.2766667 105.14,19.28 105.42,19.28 C105.68,19.28 105.891667,19.265 106.055,19.235 C106.218333,19.205 106.348333,19.1583333 106.445,19.095 C106.541667,19.0316667 106.606667,18.9466667 106.64,18.84 C106.673333,18.7333333 106.69,18.6033333 106.69,18.45 C106.69,18.17 106.605,17.9616667 106.435,17.825 C106.265,17.6883333 105.946667,17.62 105.48,17.62 L105.48,17.62 Z M97.5,15.38 C97.0466667,15.38 96.7016667,15.5033333 96.465,15.75 C96.2283333,15.9966667 96.1033333,16.4 96.09,16.96 L96.09,16.96 L98.81,16.96 C98.81,16.7133333 98.7883333,16.4916667 98.745,16.295 C98.7016667,16.0983333 98.63,15.9316667 98.53,15.795 C98.43,15.6583333 98.2966667,15.555 98.13,15.485 C97.9633333,15.415 97.7533333,15.38 97.5,15.38 Z M105.33,15.45 C105.19,15.45 105.061667,15.4516667 104.945,15.455 C104.828333,15.4583333 104.726667,15.4633333 104.64,15.47 C104.54,15.4766667 104.453333,15.48 104.38,15.48 L104.38,15.48 L104.38,16.95 L105.48,16.95 C105.86,16.95 106.126667,16.885 106.28,16.755 C106.433333,16.625 106.51,16.44 106.51,16.2 C106.51,16.0733333 106.493333,15.9633333 106.46,15.87 C106.426667,15.7766667 106.365,15.6983333 106.275,15.635 C106.185,15.5716667 106.065,15.525 105.915,15.495 C105.765,15.465 105.57,15.45 105.33,15.45 Z M36.378858,9 C36.5524379,10.5836471 35.9143961,12.1694811 34.9720469,13.312207 C34.0277992,14.4528811 32.4821241,15.3414459 30.9651982,15.2228023 C30.7590721,13.6734295 31.5236374,12.05756 32.399538,11.0450734 C33.373891,9.90497977 35.0201882,9.05697971 36.378858,9 Z"/>
  </g>
</svg>
