<svg xmlns="http://www.w3.org/2000/svg" width="161" height="50" viewBox="0 0 161 50">
  <defs>
    <linearGradient id="google_play-a" x1="61.298%" x2="25.943%" y1="95.051%" y2="28.099%">
      <stop offset="0%" stop-color="#00A0FF"/>
      <stop offset=".66%" stop-color="#00A1FF"/>
      <stop offset="26.01%" stop-color="#00BEFF"/>
      <stop offset="51.22%" stop-color="#00D2FF"/>
      <stop offset="76.04%" stop-color="#00DFFF"/>
      <stop offset="100%" stop-color="#00E3FF"/>
    </linearGradient>
    <linearGradient id="google_play-b" x1="107.571%" x2="-130.484%" y1="49.996%" y2="49.996%">
      <stop offset="0%" stop-color="#FFE000"/>
      <stop offset="40.87%" stop-color="#FFBD00"/>
      <stop offset="77.54%" stop-color="orange"/>
      <stop offset="100%" stop-color="#FF9C00"/>
    </linearGradient>
    <linearGradient id="google_play-c" x1="36.237%" x2="-100.136%" y1="48.277%" y2="-54.402%">
      <stop offset="0%" stop-color="#FF3A44"/>
      <stop offset="100%" stop-color="#C31162"/>
    </linearGradient>
    <linearGradient id="google_play-d" x1="-68.78%" x2="-7.887%" y1="130.77%" y2="84.944%">
      <stop offset="0%" stop-color="#32A071"/>
      <stop offset="6.85%" stop-color="#2DA771"/>
      <stop offset="47.62%" stop-color="#15CF74"/>
      <stop offset="80.09%" stop-color="#06E775"/>
      <stop offset="100%" stop-color="#00F076"/>
    </linearGradient>
  </defs>
  <g fill="none" fill-rule="evenodd">
    <rect width="161" height="50" fill="#000014" rx="5"/>
    <path fill="#FFF" fill-rule="nonzero" d="M134.792,27.456 L136.856,33.312 L138.52,27.456 L140.52,27.456 L137.928,35.904 L137.837224,36.1884082 C137.65698,36.740898 137.484571,37.1954286 137.32,37.552 C137.128,37.968 136.928,38.2906667 136.72,38.52 C136.512,38.7493333 136.285333,38.9013333 136.04,38.976 C135.794667,39.0506667 135.522667,39.088 135.224,39.088 C134.946667,39.088 134.696,39.0586667 134.472,39 C134.248,38.9413333 134.12,38.9013333 134.088,38.88 L134.088,38.88 L134.088,37.088 L134.206222,37.1573333 C134.28563,37.2 134.366222,37.2355556 134.448,37.264 C134.570667,37.3066667 134.717333,37.328 134.888,37.328 C134.994667,37.328 135.098667,37.312 135.2,37.28 C135.301333,37.248 135.394667,37.184 135.48,37.088 C135.565333,36.992 135.648,36.856 135.728,36.68 C135.808,36.504 135.885333,36.2773333 135.96,36 L135.96,36 L132.68,27.456 L134.792,27.456 Z M85.528,27.264 C86.1573333,27.264 86.68,27.392 87.096,27.648 C87.512,27.904 87.8213333,28.256 88.024,28.704 L88.024,28.704 L88.104,27.456 L89.976,27.456 L89.976,35.136 L89.9714844,35.4123022 C89.9293393,36.6769896 89.5921778,37.5955556 88.96,38.168 C88.2826667,38.7813333 87.2453333,39.088 85.848,39.088 C85.2186667,39.088 84.6506667,39.032 84.144,38.92 C83.6373333,38.808 83.2453333,38.6826667 82.968,38.544 L82.968,38.544 L82.968,36.464 L83.055,36.5365 C83.149,36.6095 83.264,36.684 83.4,36.76 C83.5813333,36.8613333 83.7946667,36.9546667 84.04,37.04 C84.2853333,37.1253333 84.5626667,37.1946667 84.872,37.248 C85.1813333,37.3013333 85.5173333,37.328 85.88,37.328 C86.6373333,37.328 87.184,37.1626667 87.52,36.832 C87.856,36.5013333 88.024,35.9786667 88.024,35.264 L88.024,35.264 L88.024,34.32 L87.9288889,34.5004444 C87.858963,34.6201481 87.776,34.7386667 87.68,34.856 C87.536,35.032 87.36,35.192 87.152,35.336 C86.944,35.48 86.6986667,35.5973333 86.416,35.688 C86.1333333,35.7786667 85.816,35.824 85.464,35.824 C84.3866667,35.824 83.584,35.4906667 83.056,34.824 C82.528,34.1573333 82.264,33.0826667 82.264,31.6 C82.264,30.0746667 82.5333333,28.9706667 83.072,28.288 C83.6106667,27.6053333 84.4293333,27.264 85.528,27.264 Z M128.056,27.264 C128.674667,27.264 129.2,27.3173333 129.632,27.424 C130.064,27.5306667 130.410667,27.7066667 130.672,27.952 C130.933333,28.1973333 131.122667,28.5173333 131.24,28.912 C131.357333,29.3066667 131.416,29.792 131.416,30.368 L131.416,30.368 L131.416,36 L129.656,36 L129.576,34.64 L129.499592,34.8192653 C129.331102,35.1706122 129.068571,35.4788571 128.712,35.744 C128.296,36.0533333 127.741333,36.208 127.048,36.208 C126.216,36.208 125.584,35.9893333 125.152,35.552 C124.72,35.1146667 124.504,34.4746667 124.504,33.632 C124.504,33.184 124.562667,32.7946667 124.68,32.464 C124.797333,32.1333333 124.989333,31.8586667 125.256,31.64 C125.522667,31.4213333 125.869333,31.256 126.296,31.144 C126.722667,31.032 127.245333,30.976 127.864,30.976 L127.864,30.976 L129.464,30.976 L129.464,30.4 L129.45825,30.218875 C129.431417,29.8122917 129.310667,29.518 129.096,29.336 C128.850667,29.128 128.397333,29.024 127.736,29.024 C127.234667,29.024 126.757333,29.088 126.304,29.216 C125.850667,29.344 125.485333,29.4986667 125.208,29.68 L125.208,29.68 L125.208,27.76 L125.375556,27.6924444 C125.667407,27.5828148 126.022222,27.488 126.44,27.408 C126.941333,27.312 127.48,27.264 128.056,27.264 Z M100.6,27.264 C101.922667,27.264 102.869333,27.608 103.44,28.296 C104.010667,28.984 104.296,29.9893333 104.296,31.312 L104.296,31.312 L104.296,32.24 L98.696,32.24 L98.71064,32.47648 C98.76968,33.16576 98.9648,33.6736 99.296,34 C99.664,34.3626667 100.242667,34.544 101.032,34.544 C101.576,34.544 102.101333,34.456 102.608,34.28 C103.114667,34.104 103.506667,33.888 103.784,33.632 L103.784,33.632 L103.784,35.44 L103.5888,35.55872 C103.315733,35.7131733 102.991467,35.8522667 102.616,35.976 C102.146667,36.1306667 101.544,36.208 100.808,36.208 C99.3573333,36.208 98.3173333,35.8346667 97.688,35.088 C97.0586667,34.3413333 96.744,33.184 96.744,31.616 C96.744,30.144 97.0826667,29.0506667 97.76,28.336 C98.4373333,27.6213333 99.384,27.264 100.6,27.264 Z M77.08,27.264 C78.4133333,27.264 79.4026667,27.608 80.048,28.296 C80.6933333,28.984 81.016,30.128 81.016,31.728 C81.016,33.296 80.6826667,34.4346667 80.016,35.144 C79.3493333,35.8533333 78.3706667,36.208 77.08,36.208 C75.7786667,36.208 74.7973333,35.8533333 74.136,35.144 C73.4746667,34.4346667 73.144,33.296 73.144,31.728 C73.144,30.2026667 73.4853333,29.0773333 74.168,28.352 C74.8506667,27.6266667 75.8213333,27.264 77.08,27.264 Z M67.96,27.264 C69.2933333,27.264 70.2826667,27.608 70.928,28.296 C71.5733333,28.984 71.896,30.128 71.896,31.728 C71.896,33.296 71.5626667,34.4346667 70.896,35.144 C70.2293333,35.8533333 69.2506667,36.208 67.96,36.208 C66.6586667,36.208 65.6773333,35.8533333 65.016,35.144 C64.3546667,34.4346667 64.024,33.296 64.024,31.728 C64.024,30.2026667 64.3653333,29.0773333 65.048,28.352 C65.7306667,27.6266667 66.7013333,27.264 67.96,27.264 Z M58.968,24.592 C59.384,24.592 59.76,24.6186667 60.096,24.672 C60.432,24.7253333 60.7226667,24.784 60.968,24.848 C61.2453333,24.9226667 61.496,25.008 61.72,25.104 L61.72,25.104 L61.72,27.168 L61.52448,27.06752 C61.25056,26.9361067 60.9237333,26.8149333 60.544,26.704 C60.0693333,26.5653333 59.544,26.496 58.968,26.496 C58.4346667,26.496 57.9733333,26.5653333 57.584,26.704 C57.1946667,26.8426667 56.8693333,27.064 56.608,27.368 C56.3466667,27.672 56.152,28.0666667 56.024,28.552 C55.896,29.0373333 55.832,29.6266667 55.832,30.32 C55.832,31.0666667 55.896,31.6933333 56.024,32.2 C56.152,32.7066667 56.344,33.1173333 56.6,33.432 C56.856,33.7466667 57.1813333,33.9706667 57.576,34.104 C57.9706667,34.2373333 58.4346667,34.304 58.968,34.304 C59.2773333,34.304 59.5493333,34.2826667 59.784,34.24 C60.0186667,34.1973333 60.2373333,34.1493333 60.44,34.096 L60.44,34.096 L60.44,31.648 L58.648,31.648 L58.648,29.936 L62.36,29.936 L62.36,35.408 L62.2192653,35.4814694 C61.9214694,35.6290612 61.5257143,35.7805714 61.032,35.936 C60.456,36.1173333 59.768,36.208 58.968,36.208 C58.0613333,36.208 57.28,36.1013333 56.624,35.888 C55.968,35.6746667 55.424,35.3306667 54.992,34.856 C54.56,34.3813333 54.24,33.7733333 54.032,33.032 C53.824,32.2906667 53.72,31.392 53.72,30.336 C53.72,28.3306667 54.1546667,26.872 55.024,25.96 C55.8933333,25.048 57.208,24.592 58.968,24.592 Z M121.816,23.888 L121.816,33.376 L121.819592,33.5242449 C121.833959,33.8063673 121.891429,34.0022857 121.992,34.112 C122.109333,34.24 122.306667,34.304 122.584,34.304 C122.765333,34.304 122.938667,34.2746667 123.104,34.216 C123.269333,34.1573333 123.368,34.1173333 123.4,34.096 L123.4,34.096 L123.4,35.856 L123.375556,35.8686667 C123.320741,35.8931111 123.195556,35.9342222 123,35.992 C122.765333,36.0613333 122.472,36.096 122.12,36.096 C121.330667,36.096 120.757333,35.9146667 120.4,35.552 C120.042667,35.1893333 119.864,34.592 119.864,33.76 L119.864,33.76 L119.864,23.888 L121.816,23.888 Z M94.056,23.888 L94.056,33.376 L94.0595918,33.5242449 C94.0739592,33.8063673 94.1314286,34.0022857 94.232,34.112 C94.3493333,34.24 94.5466667,34.304 94.824,34.304 C95.0053333,34.304 95.1786667,34.2746667 95.344,34.216 C95.5093333,34.1573333 95.608,34.1173333 95.64,34.096 L95.64,34.096 L95.64,35.856 L95.6155556,35.8686667 C95.5607407,35.8931111 95.4355556,35.9342222 95.24,35.992 C95.0053333,36.0613333 94.712,36.096 94.36,36.096 C93.5706667,36.096 92.9973333,35.9146667 92.64,35.552 C92.2826667,35.1893333 92.104,34.592 92.104,33.76 L92.104,33.76 L92.104,23.888 L94.056,23.888 Z M113.688,24.704 C114.498667,24.704 115.186667,24.7786667 115.752,24.928 C116.317333,25.0773333 116.776,25.312 117.128,25.632 C117.48,25.952 117.733333,26.3573333 117.888,26.848 C118.042667,27.3386667 118.12,27.92 118.12,28.592 C118.12,29.9573333 117.768,30.976 117.064,31.648 C116.36,32.32 115.234667,32.656 113.688,32.656 L113.688,32.656 L113.184,32.656 L113.035556,32.6542222 C112.940741,32.6518519 112.854222,32.6471111 112.776,32.64 C112.637333,32.6293333 112.509333,32.6186667 112.392,32.608 L112.392,32.608 L112.392,36 L110.344,36 L110.344,24.88 L110.699556,24.8568889 C110.938963,24.8402963 111.183111,24.8213333 111.432,24.8 C111.752,24.7786667 112.109333,24.7573333 112.504,24.736 C112.898667,24.7146667 113.293333,24.704 113.688,24.704 Z M129.464,32.224 L128.088,32.224 L127.895802,32.2276543 C127.401712,32.247144 127.055111,32.3445926 126.856,32.52 C126.632,32.7173333 126.52,33.0293333 126.52,33.456 C126.52,33.8186667 126.616,34.0906667 126.808,34.272 C127,34.4533333 127.314667,34.544 127.752,34.544 C128.285333,34.544 128.704,34.3866667 129.008,34.072 C129.312,33.7573333 129.464,33.296 129.464,32.688 L129.464,32.688 L129.464,32.224 Z M77.08,29.024 C76.4506667,29.024 75.9733333,29.224 75.648,29.624 C75.3226667,30.024 75.16,30.7253333 75.16,31.728 C75.16,32.24 75.2,32.672 75.28,33.024 C75.36,33.376 75.48,33.656 75.64,33.864 C75.8,34.072 76,34.2213333 76.24,34.312 C76.48,34.4026667 76.76,34.448 77.08,34.448 C77.4,34.448 77.68,34.4026667 77.92,34.312 C78.16,34.2213333 78.36,34.072 78.52,33.864 C78.68,33.656 78.8,33.376 78.88,33.024 C78.96,32.672 79,32.24 79,31.728 C79,31.216 78.96,30.7866667 78.88,30.44 C78.8,30.0933333 78.68,29.816 78.52,29.608 C78.36,29.4 78.16,29.2506667 77.92,29.16 C77.68,29.0693333 77.4,29.024 77.08,29.024 Z M67.96,29.024 C67.3306667,29.024 66.8533333,29.224 66.528,29.624 C66.2026667,30.024 66.04,30.7253333 66.04,31.728 C66.04,32.24 66.08,32.672 66.16,33.024 C66.24,33.376 66.36,33.656 66.52,33.864 C66.68,34.072 66.88,34.2213333 67.12,34.312 C67.36,34.4026667 67.64,34.448 67.96,34.448 C68.28,34.448 68.56,34.4026667 68.8,34.312 C69.04,34.2213333 69.24,34.072 69.4,33.864 C69.56,33.656 69.68,33.376 69.76,33.024 C69.84,32.672 69.88,32.24 69.88,31.728 C69.88,31.216 69.84,30.7866667 69.76,30.44 C69.68,30.0933333 69.56,29.816 69.4,29.608 C69.24,29.4 69.04,29.2506667 68.8,29.16 C68.56,29.0693333 68.28,29.024 67.96,29.024 Z M86.12,29.024 C85.5013333,29.024 85.04,29.2053333 84.736,29.568 C84.432,29.9306667 84.28,30.56 84.28,31.456 C84.28,32.4373333 84.4346667,33.1173333 84.744,33.496 C85.0533333,33.8746667 85.512,34.064 86.12,34.064 C86.7173333,34.064 87.184,33.88 87.52,33.512 C87.856,33.144 88.024,32.5813333 88.024,31.824 L88.024,31.824 L88.024,31.184 L88.0180741,30.9555556 C87.9864691,30.362963 87.8284444,29.9031111 87.544,29.576 C87.224,29.208 86.7493333,29.024 86.12,29.024 Z M100.6,28.8 C99.992,28.8 99.5333333,28.9733333 99.224,29.32 C98.9146667,29.6666667 98.7386667,30.224 98.696,30.992 L98.696,30.992 L102.344,30.992 C102.344,30.2773333 102.221333,29.7333333 101.976,29.36 C101.730667,28.9866667 101.272,28.8 100.6,28.8 Z M113.688,26.608 C113.506667,26.608 113.338667,26.6106667 113.184,26.616 C113.029333,26.6213333 112.893333,26.6293333 112.776,26.64 C112.637333,26.6506667 112.509333,26.6613333 112.392,26.672 L112.392,26.672 L112.392,30.704 L112.576,30.72 L112.576,30.72 L112.776,30.736 C112.893333,30.7466667 113.029333,30.752 113.184,30.752 L113.184,30.752 L113.688,30.752 C114.114667,30.752 114.477333,30.712 114.776,30.632 C115.074667,30.552 115.314667,30.4266667 115.496,30.256 C115.677333,30.0853333 115.808,29.864 115.888,29.592 C115.968,29.32 116.008,28.9866667 116.008,28.592 C116.008,28.24 115.970667,27.9386667 115.896,27.688 C115.821333,27.4373333 115.693333,27.232 115.512,27.072 C115.330667,26.912 115.090667,26.7946667 114.792,26.72 C114.493333,26.6453333 114.125333,26.608 113.688,26.608 Z M76.36,14.74 L77.95,18.83 L79.28,14.74 L80.2,14.74 L78.4,20.03 L78.3172,20.268 C78.2084,20.572 78.106,20.8226667 78.01,21.02 C77.89,21.2666667 77.7683333,21.455 77.645,21.585 C77.5216667,21.715 77.3933333,21.8016667 77.26,21.845 C77.1266667,21.8883333 76.9766667,21.91 76.81,21.91 C76.6766667,21.91 76.5533333,21.8966667 76.44,21.87 C76.3266667,21.8433333 76.2533333,21.82 76.22,21.8 L76.22,21.8 L76.22,20.94 L76.2833333,20.9838889 C76.3277778,21.0112963 76.3766667,21.035 76.43,21.055 C76.51,21.085 76.6066667,21.1 76.72,21.1 C76.8,21.1 76.8733333,21.0883333 76.94,21.065 C77.0066667,21.0416667 77.0716667,20.99 77.135,20.91 C77.1983333,20.83 77.2616667,20.7183333 77.325,20.575 C77.3883333,20.4316667 77.4566667,20.24 77.53,20 L77.53,20 L75.4,14.74 L76.36,14.74 Z M58.74,12.99 L58.74,19.17 L59.55,19.17 L59.55,21.3 L58.7,21.3 L58.7,20 L54.1,20 L54.1,21.3 L53.25,21.3 L53.25,19.17 L53.91,19.17 L54.006875,18.9509375 C54.100625,18.7228125 54.185,18.4675 54.26,18.185 C54.36,17.8083333 54.4433333,17.4 54.51,16.96 C54.5766667,16.52 54.6283333,16.0533333 54.665,15.56 C54.7016667,15.0666667 54.7266667,14.5633333 54.74,14.05 L54.74,14.05 L54.76,12.99 L58.74,12.99 Z M94.75,14.63 C95.53,14.63 96.115,14.8416667 96.505,15.265 C96.895,15.6883333 97.09,16.39 97.09,17.37 C97.09,18.33 96.8883333,19.0266667 96.485,19.46 C96.0816667,19.8933333 95.5033333,20.11 94.75,20.11 C93.9833333,20.11 93.4016667,19.8933333 93.005,19.46 C92.6083333,19.0266667 92.41,18.33 92.41,17.37 C92.41,16.4366667 92.6166667,15.7466667 93.03,15.3 C93.4433333,14.8533333 94.0166667,14.63 94.75,14.63 Z M68.58,14.63 C68.94,14.63 69.2366667,14.6616667 69.47,14.725 C69.7033333,14.7883333 69.8666667,14.84 69.96,14.88 L69.96,14.88 L69.96,15.83 L69.83875,15.7528125 C69.71125,15.6784375 69.565,15.6125 69.4,15.555 C69.18,15.4783333 68.93,15.44 68.65,15.44 C68.13,15.44 67.735,15.5866667 67.465,15.88 C67.195,16.1733333 67.06,16.6533333 67.06,17.32 C67.06,18.0266667 67.2,18.5333333 67.48,18.84 C67.76,19.1466667 68.1833333,19.3 68.75,19.3 C68.9966667,19.3 69.24,19.2583333 69.48,19.175 C69.72,19.0916667 69.91,18.9933333 70.05,18.88 L70.05,18.88 L70.05,19.79 L69.9854,19.8236 C69.8878,19.8705333 69.7443333,19.926 69.555,19.99 C69.3183333,20.07 69.0166667,20.11 68.65,20.11 C68.23,20.11 67.8633333,20.0583333 67.55,19.955 C67.2366667,19.8516667 66.9783333,19.6866667 66.775,19.46 C66.5716667,19.2333333 66.4183333,18.9433333 66.315,18.59 C66.2116667,18.2366667 66.16,17.8133333 66.16,17.32 C66.16,16.3933333 66.3666667,15.7133333 66.78,15.28 C67.1933333,14.8466667 67.7933333,14.63 68.58,14.63 Z M62.8,14.63 C63.58,14.63 64.165,14.8416667 64.555,15.265 C64.945,15.6883333 65.14,16.39 65.14,17.37 C65.14,18.33 64.9383333,19.0266667 64.535,19.46 C64.1316667,19.8933333 63.5533333,20.11 62.8,20.11 C62.0333333,20.11 61.4516667,19.8933333 61.055,19.46 C60.6583333,19.0266667 60.46,18.33 60.46,17.37 C60.46,16.4366667 60.6666667,15.7466667 61.08,15.3 C61.4933333,14.8533333 62.0666667,14.63 62.8,14.63 Z M102.73,14.68 C103.13,14.68 103.461667,14.7116667 103.725,14.775 C103.988333,14.8383333 104.198333,14.93 104.355,15.05 C104.511667,15.17 104.623333,15.3183333 104.69,15.495 C104.756667,15.6716667 104.79,15.8733333 104.79,16.1 C104.79,16.38 104.716667,16.6133333 104.57,16.8 C104.423333,16.9866667 104.19,17.1266667 103.87,17.22 C104.25,17.26 104.531667,17.39 104.715,17.61 C104.898333,17.83 104.99,18.13 104.99,18.51 C104.99,18.7566667 104.951667,18.9766667 104.875,19.17 C104.798333,19.3633333 104.675,19.525 104.505,19.655 C104.335,19.785 104.11,19.885 103.83,19.955 C103.55,20.025 103.206667,20.06 102.8,20.06 C102.54,20.06 102.296667,20.0583333 102.07,20.055 C101.843333,20.0516667 101.643333,20.0433333 101.47,20.03 C101.27,20.0233333 101.083333,20.0133333 100.91,20 L100.91,20 L100.91,14.73 L101.081111,14.7233333 C101.198148,14.7188889 101.321111,14.7144444 101.45,14.71 C101.616667,14.7033333 101.808333,14.6966667 102.025,14.69 C102.241667,14.6833333 102.476667,14.68 102.73,14.68 Z M87.79,14.74 L87.79,16.92 L90.21,16.92 L90.21,14.74 L91.09,14.74 L91.09,20 L90.21,20 L90.21,17.72 L87.79,17.72 L87.79,20 L86.91,20 L86.91,14.74 L87.79,14.74 Z M85.29,14.74 L85.29,20 L84.41,20 L84.41,15.54 L82.09,15.54 L82.09,20 L81.21,20 L81.21,14.74 L85.29,14.74 Z M74.9,14.74 L74.9,15.54 L73.24,15.54 L73.24,20 L72.36,20 L72.36,15.54 L70.7,15.54 L70.7,14.74 L74.9,14.74 Z M94.75,15.44 C94.29,15.44 93.935,15.585 93.685,15.875 C93.435,16.165 93.31,16.6633333 93.31,17.37 C93.31,17.73 93.34,18.0333333 93.4,18.28 C93.46,18.5266667 93.55,18.725 93.67,18.875 C93.79,19.025 93.94,19.1333333 94.12,19.2 C94.3,19.2666667 94.51,19.3 94.75,19.3 C94.99,19.3 95.2,19.2666667 95.38,19.2 C95.56,19.1333333 95.71,19.025 95.83,18.875 C95.95,18.725 96.04,18.5266667 96.1,18.28 C96.16,18.0333333 96.19,17.73 96.19,17.37 C96.19,17.01 96.16,16.7066667 96.1,16.46 C96.04,16.2133333 95.95,16.015 95.83,15.865 C95.71,15.715 95.56,15.6066667 95.38,15.54 C95.2,15.4733333 94.99,15.44 94.75,15.44 Z M62.8,15.44 C62.34,15.44 61.985,15.585 61.735,15.875 C61.485,16.165 61.36,16.6633333 61.36,17.37 C61.36,17.73 61.39,18.0333333 61.45,18.28 C61.51,18.5266667 61.6,18.725 61.72,18.875 C61.84,19.025 61.99,19.1333333 62.17,19.2 C62.35,19.2666667 62.56,19.3 62.8,19.3 C63.04,19.3 63.25,19.2666667 63.43,19.2 C63.61,19.1333333 63.76,19.025 63.88,18.875 C64,18.725 64.09,18.5266667 64.15,18.28 C64.21,18.0333333 64.24,17.73 64.24,17.37 C64.24,17.01 64.21,16.7066667 64.15,16.46 C64.09,16.2133333 64,16.015 63.88,15.865 C63.76,15.715 63.61,15.6066667 63.43,15.54 C63.25,15.4733333 63.04,15.44 62.8,15.44 Z M102.88,17.62 L101.78,17.62 L101.78,19.25 C101.817315,19.2588889 101.917778,19.2644444 102.09,19.27 C102.296667,19.2766667 102.54,19.28 102.82,19.28 C103.08,19.28 103.291667,19.265 103.455,19.235 C103.618333,19.205 103.748333,19.1583333 103.845,19.095 C103.941667,19.0316667 104.006667,18.9466667 104.04,18.84 C104.073333,18.7333333 104.09,18.6033333 104.09,18.45 C104.09,18.17 104.005,17.9616667 103.835,17.825 C103.665,17.6883333 103.346667,17.62 102.88,17.62 L102.88,17.62 Z M57.83,13.83 L55.61,13.83 L55.605,14.3016667 C55.5983333,14.6194444 55.585,14.9438889 55.565,15.275 C55.535,15.7716667 55.4883333,16.2566667 55.425,16.73 C55.3616667,17.2033333 55.28,17.65 55.18,18.07 C55.08,18.49 54.9633333,18.8566667 54.83,19.17 L54.83,19.17 L57.83,19.17 L57.83,13.83 Z M102.73,15.45 C102.59,15.45 102.461667,15.4516667 102.345,15.455 C102.228333,15.4583333 102.126667,15.4633333 102.04,15.47 C101.94,15.4766667 101.853333,15.48 101.78,15.48 L101.78,15.48 L101.78,16.95 L102.88,16.95 C103.26,16.95 103.526667,16.885 103.68,16.755 C103.833333,16.625 103.91,16.44 103.91,16.2 C103.91,16.0733333 103.893333,15.9633333 103.86,15.87 C103.826667,15.7766667 103.765,15.6983333 103.675,15.635 C103.585,15.5716667 103.465,15.525 103.315,15.495 C103.165,15.465 102.97,15.45 102.73,15.45 Z"/>
    <path fill="url(#google_play-a)" fill-rule="nonzero" d="M20.4562558,12.3858448 C20.1677918,12.6846521 20,13.1489527 20,13.7511644 L20,35.2308144 C20,35.8330261 20.1666425,36.298476 20.4562558,36.5961341 L20.5275099,36.6616418 L32.7062071,24.6300498 L32.7062071,24.3461828 L20.5275099,12.31574 L20.4562558,12.3858448 Z"/>
    <path fill="url(#google_play-b)" fill-rule="nonzero" d="M36.7607927,28.6444113 L32.7062071,24.6323483 L32.7062071,24.3484813 L36.766539,20.3364183 L36.8573305,20.3881349 L41.6658299,23.0923413 C43.0380451,23.8600463 43.0380451,25.1219326 41.6658299,25.8942346 L36.8573305,28.5926947 C36.8561812,28.5915454 36.7607927,28.6444113 36.7607927,28.6444113 Z"/>
    <path fill="url(#google_play-c)" fill-rule="nonzero" d="M36.8561812,28.5915454 L32.7050578,24.4886909 L20.4562558,36.5972833 C20.9125116,37.070778 21.6549329,37.128241 22.5007875,36.6547463 L36.8561812,28.5915454"/>
    <path fill="url(#google_play-d)" fill-rule="nonzero" d="M36.8561812,20.3869857 L22.4996382,12.3237848 C21.6549329,11.8548871 20.9113624,11.9123501 20.4551065,12.3858448 L32.7050578,24.4886909 L36.8561812,20.3869857 Z"/>
  </g>
</svg>
